<svg width="90" height="36" viewBox="0 0 90 36" fill="none" xmlns="http://www.w3.org/2000/svg">
<path d="M6.944 27.904C6.944 27.9253 6.93333 27.9467 6.912 27.968C6.89067 27.9893 6.85867 28 6.816 28H0.672C0.618667 28 0.581333 27.9893 0.56 27.968C0.538667 27.9467 0.528 27.9253 0.528 27.904C0.528 27.8613 0.586667 27.8187 0.704 27.776L1.664 27.504C2.13333 27.3547 2.528 27.1147 2.848 26.784C3.168 26.4533 3.328 25.9893 3.328 25.392V9.136C3.328 8.98667 3.31733 8.88 3.296 8.816C3.28533 8.74133 3.22667 8.624 3.12 8.464L1.632 6.016C1.58933 5.93067 1.54667 5.856 1.504 5.792C1.46133 5.728 1.44 5.68 1.44 5.648C1.44 5.62667 1.44533 5.616 1.456 5.616C1.47733 5.60533 1.51467 5.6 1.568 5.6H6.448C6.512 5.6 6.56533 5.62667 6.608 5.68C6.66133 5.73333 6.72533 5.824 6.8 5.952L18.224 25.008L17.984 25.488V8.208C17.984 7.6 17.824 7.13067 17.504 6.8C17.184 6.46933 16.7787 6.23467 16.288 6.096L14.848 5.824C14.7413 5.78133 14.688 5.73867 14.688 5.696C14.688 5.67467 14.6987 5.65333 14.72 5.632C14.7413 5.61067 14.7733 5.6 14.816 5.6H20.96C21.0027 5.6 21.0347 5.61067 21.056 5.632C21.0773 5.65333 21.088 5.67467 21.088 5.696C21.088 5.73867 21.0347 5.78133 20.928 5.824L19.968 6.096C19.4987 6.23467 19.104 6.46933 18.784 6.8C18.464 7.13067 18.304 7.6 18.304 8.208V24.864C18.304 24.992 18.32 25.1093 18.352 25.216C18.3947 25.312 18.4427 25.4027 18.496 25.488L19.632 27.312C19.7387 27.504 19.8133 27.6427 19.856 27.728C19.8987 27.8133 19.92 27.872 19.92 27.904C19.92 27.936 19.904 27.9627 19.872 27.984C19.8507 27.9947 19.8027 28 19.728 28H15.136C14.9867 28 14.912 27.9253 14.912 27.776C14.912 27.712 14.896 27.6373 14.864 27.552C14.8427 27.456 14.8053 27.376 14.752 27.312L2.976 8.016H3.632V25.392C3.632 25.9893 3.792 26.4587 4.112 26.8C4.44267 27.1307 4.84267 27.3653 5.312 27.504L6.784 27.776C6.89067 27.8187 6.944 27.8613 6.944 27.904ZM31.4353 27.392C30.2193 27.0933 29.3073 26.8373 28.6993 26.624C28.0913 26.4107 27.6859 26.208 27.4833 26.016C27.2806 25.824 27.1793 25.6 27.1793 25.344C27.1793 25.1093 27.2646 24.9067 27.4353 24.736C27.6059 24.5547 27.8086 24.4267 28.0433 24.352V24.224C27.0833 24.384 26.3206 24.5973 25.7552 24.864C25.2006 25.1307 24.8006 25.4507 24.5553 25.824C24.3099 26.1867 24.1873 26.5973 24.1873 27.056C24.1873 27.5787 24.3473 28.0107 24.6673 28.352C24.9873 28.704 25.5259 29.0187 26.2833 29.296C27.0513 29.5733 28.0859 29.856 29.3873 30.144C30.5393 30.3893 31.4246 30.6453 32.0433 30.912C32.6726 31.1787 33.1046 31.4773 33.3393 31.808C33.5846 32.1387 33.7073 32.5227 33.7073 32.96C33.7073 33.5253 33.5526 34 33.2433 34.384C32.9446 34.7787 32.4913 35.072 31.8833 35.264C31.2859 35.456 30.5286 35.552 29.6112 35.552C27.9046 35.552 26.6299 35.1627 25.7873 34.384C24.9446 33.6053 24.5233 32.5867 24.5233 31.328C24.5233 30.8267 24.7099 30.384 25.0833 30C25.4566 29.6267 26.0113 29.3707 26.7473 29.232L26.7153 29.056C24.9766 29.28 23.7339 29.664 22.9873 30.208C22.2513 30.7627 21.8833 31.4827 21.8833 32.368C21.8833 33.0507 22.1446 33.6533 22.6673 34.176C23.1899 34.6987 24.0059 35.1093 25.1153 35.408C26.2246 35.7173 27.6699 35.872 29.4513 35.872C31.7766 35.872 33.5739 35.4453 34.8433 34.592C36.1126 33.7387 36.7473 32.64 36.7473 31.296C36.7473 30.6027 36.5926 30.0107 36.2833 29.52C35.9846 29.04 35.4459 28.6293 34.6673 28.288C33.8993 27.9467 32.8219 27.648 31.4353 27.392ZM31.6273 14.448L31.8673 14.416C32.0913 13.9893 32.3206 13.6533 32.5553 13.408C32.7899 13.152 33.0619 13.024 33.3713 13.024C33.6059 13.024 33.8139 13.12 33.9953 13.312C34.1766 13.4933 34.3526 13.712 34.5233 13.968C34.7046 14.2133 34.9019 14.432 35.1153 14.624C35.3393 14.816 35.6113 14.912 35.9313 14.912C36.4113 14.912 36.7739 14.768 37.0193 14.48C37.2753 14.192 37.4033 13.7973 37.4033 13.296C37.4033 12.688 37.2113 12.1867 36.8273 11.792C36.4433 11.3973 35.9046 11.2 35.2113 11.2C34.4113 11.2 33.7393 11.4773 33.1953 12.032C32.6513 12.576 32.1713 13.2907 31.7553 14.176L31.6273 14.448ZM35.7073 18.96C35.7073 18 35.4513 17.12 34.9393 16.32C34.4273 15.5093 33.6913 14.8587 32.7313 14.368C31.7713 13.8773 30.6353 13.632 29.3233 13.632C27.9153 13.632 26.6993 13.8827 25.6753 14.384C24.6619 14.8747 23.8779 15.5467 23.3233 16.4C22.7793 17.2533 22.5073 18.2187 22.5073 19.296C22.5073 20.256 22.7846 21.1307 23.3393 21.92C23.8939 22.7093 24.6673 23.3387 25.6593 23.808C26.6513 24.2773 27.8193 24.512 29.1633 24.512C30.4006 24.512 31.5153 24.272 32.5073 23.792C33.4993 23.312 34.2779 22.656 34.8433 21.824C35.4193 20.9813 35.7073 20.0267 35.7073 18.96ZM28.4913 13.968C29.3339 13.9253 30.0593 14.368 30.6673 15.296C31.2753 16.224 31.6486 17.504 31.7873 19.136C31.9259 20.64 31.7873 21.84 31.3713 22.736C30.9659 23.632 30.3846 24.096 29.6273 24.128C29.0833 24.16 28.5766 23.968 28.1073 23.552C27.6379 23.1253 27.2486 22.5227 26.9393 21.744C26.6299 20.9653 26.4273 20.0427 26.3313 18.976C26.2353 17.984 26.2673 17.1147 26.4273 16.368C26.5979 15.6213 26.8593 15.04 27.2113 14.624C27.5739 14.208 28.0006 13.9893 28.4913 13.968ZM45.282 13.632C46.69 13.632 47.938 13.9467 49.026 14.576C50.114 15.2053 50.9673 16.08 51.586 17.2C52.2047 18.3093 52.514 19.5893 52.514 21.04C52.514 22.4693 52.194 23.7333 51.554 24.832C50.9247 25.92 50.05 26.7733 48.93 27.392C47.81 28.0107 46.53 28.32 45.09 28.32C43.682 28.32 42.434 28.016 41.346 27.408C40.2687 26.7893 39.4207 25.936 38.802 24.848C38.194 23.7493 37.89 22.48 37.89 21.04C37.89 19.6 38.2047 18.3253 38.834 17.216C39.4633 16.1067 40.3327 15.232 41.442 14.592C42.562 13.952 43.842 13.632 45.282 13.632ZM46.066 28.048C46.7273 27.984 47.266 27.664 47.682 27.088C48.1087 26.512 48.3913 25.6853 48.53 24.608C48.6793 23.5307 48.6633 22.2133 48.482 20.656C48.3007 19.0773 48.018 17.7813 47.634 16.768C47.25 15.744 46.7807 14.9973 46.226 14.528C45.6713 14.048 45.0473 13.8453 44.354 13.92C43.6713 13.984 43.122 14.3093 42.706 14.896C42.29 15.4827 42.018 16.3147 41.89 17.392C41.762 18.4693 41.7887 19.776 41.97 21.312C42.1513 22.8587 42.434 24.144 42.818 25.168C43.2127 26.1813 43.6873 26.9333 44.242 27.424C44.7967 27.904 45.4047 28.112 46.066 28.048ZM59.3163 27.104C59.3163 27.2107 59.3483 27.3013 59.4123 27.376C59.4763 27.4507 59.5723 27.4987 59.7003 27.52L61.4923 27.76C61.5563 27.7707 61.6043 27.7867 61.6363 27.808C61.6683 27.8187 61.6843 27.8507 61.6843 27.904C61.6843 27.968 61.6363 28 61.5403 28H53.9883C53.9669 28 53.9456 27.9947 53.9243 27.984C53.9029 27.9627 53.8923 27.9413 53.8923 27.92C53.8923 27.888 53.9029 27.8613 53.9243 27.84C53.9456 27.8187 53.9829 27.808 54.0363 27.808L55.2523 27.568C55.3696 27.536 55.4549 27.4933 55.5082 27.44C55.5616 27.376 55.5883 27.296 55.5883 27.2V14.864C55.5883 14.7893 55.5723 14.7253 55.5403 14.672C55.5083 14.608 55.4549 14.5707 55.3803 14.56L53.5723 14.176C53.5296 14.1653 53.4976 14.1547 53.4763 14.144C53.4549 14.1227 53.4443 14.096 53.4443 14.064C53.4443 14.032 53.4549 14.0053 53.4763 13.984C53.5083 13.9627 53.5403 13.952 53.5723 13.952H55.8123L55.6203 14.096V13.888C55.6203 13.568 55.5456 13.248 55.3963 12.928C55.2576 12.5973 55.0923 12.256 54.9003 11.904C54.7189 11.552 54.5536 11.1627 54.4043 10.736C54.2656 10.3093 54.1963 9.83467 54.1963 9.312C54.1963 8 54.5856 6.976 55.3643 6.24C56.1536 5.49333 57.1989 5.12 58.5003 5.12C59.3429 5.12 60.0416 5.25867 60.5963 5.536C61.1509 5.81333 61.5616 6.18667 61.8283 6.656C62.0949 7.12533 62.2283 7.63733 62.2283 8.192C62.2283 8.82133 62.0736 9.29067 61.7643 9.6C61.4656 9.89867 61.0709 10.048 60.5803 10.048C60.0896 10.048 59.6736 9.87733 59.3323 9.536C59.0016 9.19467 58.8363 8.736 58.8363 8.16V6.592C58.8363 6.19733 58.7509 5.904 58.5803 5.712C58.4096 5.50933 58.1376 5.408 57.7643 5.408C57.1989 5.408 56.7456 5.60533 56.4043 6C56.0736 6.384 55.9083 6.93333 55.9083 7.648C55.9083 8.224 56.0203 8.768 56.2443 9.28C56.4789 9.78133 56.7616 10.256 57.0923 10.704C57.4336 11.1413 57.7696 11.5573 58.1003 11.952C58.4416 12.336 58.7243 12.7093 58.9483 13.072C59.1829 13.424 59.3003 13.7707 59.3003 14.112V14.304L59.1083 13.952H61.7963C61.8603 13.952 61.9029 13.9627 61.9243 13.984C61.9456 13.9947 61.9563 14.0213 61.9563 14.064C61.9563 14.128 61.9189 14.1813 61.8443 14.224C61.7803 14.2667 61.6843 14.288 61.5563 14.288H59.3163V27.104ZM75.4713 19.728C75.4713 19.824 75.4393 19.8987 75.3753 19.952C75.3219 20.0053 75.2313 20.032 75.1033 20.032H65.1993V19.76H71.3913C71.5726 19.76 71.6633 19.6587 71.6633 19.456C71.6633 17.5573 71.4073 16.1547 70.8953 15.248C70.3939 14.3413 69.7806 13.888 69.0553 13.888C68.4579 13.888 67.9406 14.096 67.5033 14.512C67.0659 14.9173 66.7246 15.5413 66.4793 16.384C66.2446 17.2267 66.1273 18.2987 66.1273 19.6C66.1273 21.7973 66.5859 23.4453 67.5033 24.544C68.4206 25.6427 69.6259 26.192 71.1193 26.192C72.2179 26.192 73.1459 25.888 73.9033 25.28C74.6713 24.6613 75.0979 23.8293 75.1833 22.784C75.1939 22.7413 75.2099 22.7147 75.2313 22.704C75.2526 22.6827 75.2686 22.672 75.2793 22.672C75.3006 22.672 75.3219 22.6827 75.3433 22.704C75.3646 22.7253 75.3753 22.7627 75.3753 22.816C75.3113 23.872 75.0019 24.816 74.4473 25.648C73.9033 26.4693 73.1779 27.12 72.2713 27.6C71.3753 28.08 70.3673 28.32 69.2473 28.32C67.9246 28.32 66.7619 28.0267 65.7593 27.44C64.7673 26.8533 63.9886 26.032 63.4233 24.976C62.8579 23.9093 62.5753 22.6667 62.5753 21.248C62.5753 19.7333 62.8579 18.4053 63.4233 17.264C63.9993 16.1227 64.8099 15.232 65.8553 14.592C66.9006 13.952 68.1219 13.632 69.5193 13.632C70.7246 13.632 71.7699 13.8987 72.6553 14.432C73.5513 14.9547 74.2446 15.6747 74.7353 16.592C75.2259 17.5093 75.4713 18.5547 75.4713 19.728ZM89.44 19.728C89.44 19.824 89.408 19.8987 89.344 19.952C89.2907 20.0053 89.2 20.032 89.072 20.032H79.168V19.76H85.36C85.5413 19.76 85.632 19.6587 85.632 19.456C85.632 17.5573 85.376 16.1547 84.864 15.248C84.3627 14.3413 83.7493 13.888 83.024 13.888C82.4267 13.888 81.9093 14.096 81.472 14.512C81.0347 14.9173 80.6933 15.5413 80.448 16.384C80.2133 17.2267 80.096 18.2987 80.096 19.6C80.096 21.7973 80.5547 23.4453 81.472 24.544C82.3893 25.6427 83.5947 26.192 85.088 26.192C86.1867 26.192 87.1147 25.888 87.872 25.28C88.64 24.6613 89.0667 23.8293 89.152 22.784C89.1627 22.7413 89.1787 22.7147 89.2 22.704C89.2213 22.6827 89.2373 22.672 89.248 22.672C89.2693 22.672 89.2907 22.6827 89.312 22.704C89.3333 22.7253 89.344 22.7627 89.344 22.816C89.28 23.872 88.9707 24.816 88.416 25.648C87.872 26.4693 87.1467 27.12 86.24 27.6C85.344 28.08 84.336 28.32 83.216 28.32C81.8933 28.32 80.7307 28.0267 79.728 27.44C78.736 26.8533 77.9573 26.032 77.392 24.976C76.8267 23.9093 76.544 22.6667 76.544 21.248C76.544 19.7333 76.8267 18.4053 77.392 17.264C77.968 16.1227 78.7787 15.232 79.824 14.592C80.8693 13.952 82.0907 13.632 83.488 13.632C84.6933 13.632 85.7387 13.8987 86.624 14.432C87.52 14.9547 88.2133 15.6747 88.704 16.592C89.1947 17.5093 89.44 18.5547 89.44 19.728Z" fill="white"/>
</svg>
